<svg data-v-423bf9ae="" xmlns="http://www.w3.org/2000/svg" viewBox="0 0 236.7317883481968 180" class="iconAbove"><!----><!----><!----><g data-v-423bf9ae="" id="0c8a132f-62f6-4b18-83c7-9e4c784b0070" fill="#03233B" transform="matrix(6.166495665241285,0,0,6.166495665241285,-0.6166498121639847,99.20148420560938)"><path d="M0.10 3.51C0.10 3.75 0.20 3.77 0.36 3.77L0.80 3.77C0.88 3.77 3.67 10.99 3.71 11.07C4.20 12.18 4.30 12.99 4.51 12.99C4.77 12.99 4.83 12.67 5.11 12.26C5.26 12.04 5.35 12.01 5.50 11.66L8.74 4.06C8.85 3.81 8.83 3.77 9.20 3.77C9.42 3.77 9.49 3.75 9.49 3.56C9.49 3.32 9.45 3.26 9.25 3.26C9.11 3.26 8.58 3.30 8.16 3.30C7.74 3.30 6.92 3.26 6.69 3.26C6.50 3.26 6.44 3.29 6.44 3.51C6.44 3.75 6.57 3.77 6.73 3.77L7.73 3.77C7.80 3.77 7.81 3.81 7.81 3.95C7.81 4.63 6.13 8.72 5.40 10.63C5.26 10.99 5.18 11.17 5.14 11.17C5.10 11.17 5.00 10.98 4.86 10.60C4.28 9.10 3.15 6.01 2.63 4.49C2.55 4.27 2.46 3.93 2.46 3.79L2.46 3.77L3.44 3.77C3.67 3.77 3.74 3.75 3.74 3.56C3.74 3.32 3.70 3.26 3.50 3.26C3.18 3.26 2.10 3.30 1.68 3.30C1.26 3.30 0.55 3.26 0.36 3.26C0.18 3.26 0.10 3.28 0.10 3.51ZM9.31 7.64C9.31 7.70 9.38 7.70 9.44 7.70C9.49 7.70 10.07 7.67 10.11 7.67C10.21 7.67 10.26 7.66 10.28 7.85C10.32 8.88 10.33 9.87 10.33 10.85C10.33 11.14 10.33 12.21 10.29 12.21L9.59 12.21C9.39 12.21 9.38 12.29 9.38 12.43C9.38 12.59 9.38 12.67 9.55 12.67C9.81 12.67 10.49 12.64 10.84 12.64C11.19 12.64 11.77 12.67 12.04 12.67C12.19 12.67 12.21 12.57 12.21 12.43C12.21 12.28 12.21 12.21 12.04 12.21L11.44 12.21C11.37 12.21 11.37 10.04 11.37 9.70L11.37 7.32C11.37 7.24 11.37 7.20 11.23 7.20C11.16 7.20 10.42 7.24 9.65 7.27C9.48 7.27 9.44 7.27 9.38 7.41C9.34 7.52 9.31 7.60 9.31 7.64ZM10.07 4.86C10.07 5.28 10.37 5.47 10.68 5.47C11.09 5.47 11.58 5.15 11.58 4.65C11.58 4.21 11.26 4.05 10.95 4.05C10.60 4.05 10.07 4.33 10.07 4.86ZM12.91 10.01C12.91 11.68 13.87 12.85 15.64 12.85C17.09 12.85 18.09 11.56 18.09 11.48C18.09 11.45 17.85 11.24 17.81 11.24C17.72 11.24 17.14 12.15 15.96 12.15C14.95 12.15 13.96 11.33 13.96 9.88C13.96 9.72 13.97 9.49 14 9.42C14.21 9.42 16.97 9.49 17.12 9.49C17.26 9.49 17.92 9.46 17.92 9.28C17.92 8.09 17.21 7.01 15.79 7.01C14.08 7.01 12.91 8.33 12.91 10.01ZM14.03 9.03C14.08 8.34 14.73 7.41 15.62 7.41C16.06 7.41 16.87 7.70 16.87 8.99C16.87 9.04 16.70 9.03 16.35 9.04C15.65 9.07 14.22 9.10 14.15 9.10C14.04 9.10 14.03 9.09 14.03 9.03ZM18.73 7.73C18.73 7.77 18.75 7.80 18.80 7.80C18.86 7.80 19.54 7.74 19.59 7.74C19.67 7.74 19.73 7.70 19.74 7.90C19.77 8.33 19.77 8.81 19.77 9.28C19.77 9.73 19.74 12.21 19.66 12.21L19.03 12.21C18.86 12.21 18.84 12.29 18.84 12.43C18.84 12.59 18.84 12.67 19.03 12.67C19.45 12.67 19.95 12.64 20.30 12.64C20.71 12.64 21.21 12.67 21.48 12.67C21.66 12.67 21.66 12.56 21.66 12.43C21.66 12.29 21.66 12.21 21.46 12.21L20.93 12.21C20.80 12.21 20.79 12.21 20.79 11.98C20.79 10.84 20.80 9.67 20.80 8.53C20.80 8.41 20.82 8.36 21.03 8.25C21.31 8.11 21.71 7.85 22.26 7.85C23.31 7.85 23.56 8.62 23.56 9.63C23.56 11.03 23.53 12.21 23.48 12.21L22.88 12.21C22.72 12.21 22.65 12.26 22.65 12.45C22.65 12.61 22.65 12.67 22.86 12.67C23.28 12.67 23.73 12.64 24.08 12.64C24.49 12.64 24.86 12.67 25.13 12.67C25.33 12.67 25.34 12.56 25.34 12.43C25.34 12.25 25.28 12.21 25.10 12.21L24.68 12.21C24.57 12.21 24.57 12.21 24.57 12.08C24.57 11.87 24.64 10.47 24.64 9.70C24.64 8.33 24.39 7.18 22.74 7.18C21.87 7.18 21.35 7.63 20.93 7.90C20.83 7.95 20.78 8.05 20.78 7.90L20.78 7.42C20.78 7.28 20.80 7.21 20.59 7.22C20.19 7.25 19.24 7.31 19.04 7.32C18.84 7.34 18.86 7.35 18.82 7.46C18.79 7.53 18.73 7.67 18.73 7.73ZM25.93 7.73C25.93 7.77 25.94 7.80 26.00 7.80C26.05 7.80 26.74 7.74 26.78 7.74C26.87 7.74 26.92 7.70 26.94 7.90C26.96 8.33 26.96 8.81 26.96 9.28C26.96 9.73 26.94 12.21 26.85 12.21L26.22 12.21C26.05 12.21 26.04 12.29 26.04 12.43C26.04 12.59 26.04 12.67 26.22 12.67C26.64 12.67 27.15 12.64 27.50 12.64C27.90 12.64 28.41 12.67 28.67 12.67C28.85 12.67 28.85 12.56 28.85 12.43C28.85 12.29 28.85 12.21 28.66 12.21L28.13 12.21C28.00 12.21 27.99 12.21 27.99 11.98C27.99 10.84 28.00 9.67 28.00 8.53C28.00 8.41 28.01 8.36 28.22 8.25C28.50 8.11 28.91 7.85 29.46 7.85C30.51 7.85 30.76 8.62 30.76 9.63C30.76 11.03 30.73 12.21 30.67 12.21L30.07 12.21C29.92 12.21 29.85 12.26 29.85 12.45C29.85 12.61 29.85 12.67 30.06 12.67C30.48 12.67 30.93 12.64 31.28 12.64C31.68 12.64 32.06 12.67 32.33 12.67C32.52 12.67 32.54 12.56 32.54 12.43C32.54 12.25 32.48 12.21 32.30 12.21L31.88 12.21C31.77 12.21 31.77 12.21 31.77 12.08C31.77 11.87 31.84 10.47 31.84 9.70C31.84 8.33 31.58 7.18 29.93 7.18C29.06 7.18 28.55 7.63 28.13 7.90C28.03 7.95 27.97 8.05 27.97 7.90L27.97 7.42C27.97 7.28 28.00 7.21 27.79 7.22C27.38 7.25 26.43 7.31 26.24 7.32C26.04 7.34 26.05 7.35 26.01 7.46C25.98 7.53 25.93 7.67 25.93 7.73ZM33.29 11.61C33.29 12.35 33.82 12.84 34.71 12.84C35.32 12.84 36.04 12.45 36.44 12.19C36.54 12.14 36.55 12.11 36.60 12.24C36.68 12.46 36.74 12.88 37.18 12.88C37.28 12.88 37.52 12.74 37.77 12.56C38.11 12.31 38.49 12.04 38.49 12.01C38.49 11.93 38.33 11.73 38.26 11.73C38.23 11.73 37.81 12.08 37.70 12.08C37.66 12.08 37.45 12.01 37.45 11.70C37.45 11.40 37.53 9.56 37.53 8.85C37.53 7.73 37.10 6.97 35.66 6.97C34.73 6.97 33.49 7.67 33.49 8.85C33.49 9.00 33.54 9.11 33.61 9.11C33.68 9.11 34.19 8.86 34.43 8.69C34.51 8.64 34.52 8.50 34.52 8.41C34.52 7.84 34.55 7.63 34.93 7.48C35.06 7.42 35.22 7.39 35.36 7.39C36.53 7.39 36.54 8.32 36.54 9.31C36.54 9.44 36.54 9.48 36.47 9.49C35.08 9.73 33.29 10.32 33.29 11.61ZM34.36 11.21C34.36 10.58 34.99 10.22 35.64 10.01C36.04 9.88 36.46 9.80 36.50 9.80C36.53 9.80 36.54 9.81 36.54 9.91L36.54 11.75C36.54 11.84 35.76 12.14 35.22 12.14C34.66 12.14 34.36 11.65 34.36 11.21Z"></path></g><!----><g data-v-423bf9ae="" id="d83d661d-609e-41ec-b847-fab9ac90fb8c" transform="matrix(1.0868111504448785,0,0,1.0868111504448785,63.74473429518693,-0.23894260335429607)" stroke="none" fill="#033252"><g clip-rule="evenodd"><path d="M12.983 10.59l17.018 88.223-5.872-59.049 29.021-1.892-.054-9.883L64.549 1 53.622 18.977z"></path><path d="M59.389 54.548l5.16-53.541-8.74 39.716-19.612 1.045 1.57 20.462-7.766 36.583 12.057-39.899z"></path><path d="M62.8 67.182l.549-10.453-15.979 3.755-.032 11.797-17.337 26.532 21.68-27.616zM65.711 62.394l14.841-4.731 1.509-12.532-15.899 2.095zM72.07 44.502l10.988-1.417 1.581-10.278-8.079-.373L64.549 1l8.43 30.967z"></path><path d="M87.413 31.294l1.256-9.506-9.544-2.694L64.549 1l14.483 22.437-.422 7z"></path></g></g><!----></svg>